<?xml version="1.0" encoding="UTF-8"?>
<svg xmlns="http://www.w3.org/2000/svg" xmlns:xlink="http://www.w3.org/1999/xlink" width="1080px" height="200px" viewBox="0 0 1080 500" version="1.1">
<g id="surface1">
<path style=" stroke:none;fill-rule:nonzero;fill:rgb(0%,0%,0%);fill-opacity:1;" d="M 91.300781 76.457031 C 92.398438 76.453125 93.5 76.453125 94.632812 76.449219 C 98.332031 76.445312 102.03125 76.449219 105.734375 76.453125 C 108.40625 76.453125 111.078125 76.449219 113.75 76.445312 C 119.570312 76.441406 125.390625 76.441406 131.210938 76.445312 C 139.867188 76.453125 148.519531 76.449219 157.175781 76.445312 C 172.632812 76.433594 188.089844 76.433594 203.546875 76.441406 C 217.078125 76.445312 230.605469 76.445312 244.132812 76.445312 C 245.03125 76.445312 245.929688 76.445312 246.851562 76.441406 C 250.492188 76.441406 254.132812 76.441406 257.773438 76.441406 C 291.9375 76.4375 326.105469 76.441406 360.273438 76.449219 C 390.632812 76.457031 420.988281 76.457031 451.347656 76.449219 C 485.445312 76.441406 519.542969 76.4375 553.640625 76.441406 C 557.277344 76.441406 560.910156 76.441406 564.546875 76.445312 C 565.886719 76.445312 565.886719 76.445312 567.261719 76.445312 C 580.777344 76.445312 594.296875 76.445312 607.8125 76.441406 C 623.1875 76.433594 638.5625 76.4375 653.933594 76.445312 C 662.539062 76.449219 671.144531 76.449219 679.746094 76.445312 C 686.171875 76.441406 692.589844 76.445312 699.011719 76.453125 C 701.613281 76.453125 704.214844 76.453125 706.816406 76.449219 C 710.34375 76.445312 713.875 76.449219 717.40625 76.457031 C 718.417969 76.453125 719.429688 76.449219 720.472656 76.445312 C 734.089844 76.503906 734.089844 76.503906 738.164062 78.332031 C 738.859375 79.984375 739.554688 81.632812 740.273438 83.332031 C 743.367188 83.972656 746.261719 84.339844 749.367188 84.480469 C 750.210938 84.535156 751.054688 84.59375 751.925781 84.652344 C 754.015625 84.789062 756.101562 84.898438 758.195312 85 C 758.453125 83.925781 758.710938 82.851562 758.980469 81.742188 C 760.300781 78.332031 760.300781 78.332031 762.242188 77.324219 C 763.011719 77.25 763.777344 77.175781 764.570312 77.097656 C 765.421875 77.003906 766.273438 76.914062 767.152344 76.816406 C 771.261719 76.582031 775.359375 76.4375 779.46875 76.453125 C 780.394531 76.453125 781.320312 76.449219 782.273438 76.445312 C 785.355469 76.441406 788.4375 76.445312 791.515625 76.449219 C 793.734375 76.449219 795.953125 76.445312 798.175781 76.441406 C 804.183594 76.433594 810.191406 76.4375 816.199219 76.441406 C 822.496094 76.445312 828.792969 76.441406 835.085938 76.441406 C 845.660156 76.4375 856.234375 76.441406 866.804688 76.449219 C 879.019531 76.457031 891.230469 76.457031 903.445312 76.445312 C 913.941406 76.4375 924.4375 76.4375 934.9375 76.441406 C 941.203125 76.445312 947.464844 76.445312 953.730469 76.441406 C 959.617188 76.433594 965.511719 76.4375 971.398438 76.449219 C 973.558594 76.449219 975.714844 76.449219 977.871094 76.445312 C 980.824219 76.441406 983.78125 76.445312 986.734375 76.453125 C 987.582031 76.453125 988.429688 76.449219 989.300781 76.445312 C 993.421875 76.464844 997.519531 76.683594 1001.628906 77.199219 C 1002.398438 77.296875 1003.164062 77.390625 1003.957031 77.488281 C 1005.898438 78.332031 1005.898438 78.332031 1008.007812 83.332031 C 1011.226562 85.355469 1011.226562 85.355469 1014.332031 86.667969 C 1014.332031 87.765625 1014.332031 88.867188 1014.332031 90 C 1015.722656 91.101562 1017.113281 92.199219 1018.546875 93.332031 C 1018.546875 94.433594 1018.546875 95.535156 1018.546875 96.667969 C 1019.9375 97.765625 1021.332031 98.867188 1022.765625 100 C 1022.765625 101.101562 1022.765625 102.199219 1022.765625 103.332031 C 1023.808594 103.882812 1024.851562 104.433594 1025.925781 105 C 1026.089844 106.960938 1026.089844 106.960938 1026.257812 108.957031 C 1026.742188 113.882812 1026.742188 113.882812 1030.144531 116.667969 C 1030.675781 120.996094 1030.675781 120.996094 1030.859375 126.402344 C 1030.925781 128.363281 1030.992188 130.320312 1031.0625 132.335938 C 1031.261719 141.304688 1031.34375 150.25 1031.332031 159.21875 C 1031.335938 161.183594 1031.335938 163.144531 1031.335938 165.167969 C 1031.34375 171.578125 1031.339844 177.988281 1031.335938 184.402344 C 1031.335938 188.894531 1031.335938 193.386719 1031.339844 197.875 C 1031.34375 207.257812 1031.339844 216.636719 1031.335938 226.015625 C 1031.328125 236.828125 1031.328125 247.636719 1031.335938 258.445312 C 1031.339844 267.773438 1031.34375 277.101562 1031.335938 286.433594 C 1031.335938 291.984375 1031.335938 297.535156 1031.339844 303.085938 C 1031.34375 309.273438 1031.339844 315.457031 1031.332031 321.640625 C 1031.335938 323.457031 1031.335938 325.269531 1031.339844 327.136719 C 1031.324219 337.097656 1031.234375 346.839844 1030.144531 356.667969 C 1028.578125 358.316406 1028.578125 358.316406 1026.980469 360 C 1026.871094 361.273438 1026.761719 362.542969 1026.652344 363.855469 C 1025.757812 369.359375 1024.101562 371.113281 1021.296875 374.453125 C 1019.542969 376.746094 1018.324219 379.101562 1016.964844 381.980469 C 1014.050781 387.167969 1012.15625 388.210938 1008.007812 390 C 1007.660156 391.101562 1007.3125 392.199219 1006.953125 393.332031 C 1002.625 394.914062 998.449219 395.207031 994.019531 395.210938 C 992.703125 395.214844 991.382812 395.21875 990.027344 395.226562 C 988.570312 395.222656 987.117188 395.21875 985.660156 395.214844 C 984.105469 395.214844 982.546875 395.21875 980.992188 395.222656 C 976.699219 395.230469 972.40625 395.230469 968.109375 395.222656 C 963.445312 395.222656 958.78125 395.230469 954.117188 395.234375 C 945.9375 395.242188 937.757812 395.246094 929.574219 395.242188 C 917.410156 395.242188 905.246094 395.246094 893.078125 395.257812 C 870.089844 395.273438 847.105469 395.277344 824.113281 395.277344 C 806.371094 395.277344 788.621094 395.28125 770.875 395.289062 C 765.769531 395.289062 760.664062 395.289062 755.5625 395.292969 C 753.660156 395.292969 753.660156 395.292969 751.714844 395.292969 C 716.019531 395.304688 680.320312 395.308594 644.621094 395.308594 C 643.273438 395.308594 641.925781 395.308594 640.539062 395.308594 C 633.71875 395.308594 626.890625 395.308594 620.066406 395.308594 C 618.710938 395.308594 617.355469 395.308594 615.960938 395.308594 C 613.21875 395.308594 610.476562 395.308594 607.738281 395.308594 C 565.074219 395.308594 522.410156 395.320312 479.746094 395.34375 C 431.84375 395.367188 383.9375 395.382812 336.035156 395.382812 C 330.929688 395.382812 325.824219 395.382812 320.722656 395.382812 C 318.835938 395.382812 318.835938 395.382812 316.914062 395.382812 C 296.65625 395.382812 276.398438 395.390625 256.140625 395.40625 C 235.796875 395.421875 215.453125 395.421875 195.109375 395.410156 C 183.011719 395.40625 170.914062 395.40625 158.816406 395.425781 C 150.746094 395.433594 142.671875 395.433594 134.601562 395.421875 C 129.996094 395.414062 125.394531 395.414062 120.789062 395.425781 C 116.601562 395.4375 112.417969 395.433594 108.230469 395.417969 C 106.722656 395.417969 105.214844 395.417969 103.707031 395.429688 C 101.664062 395.4375 99.621094 395.429688 97.578125 395.414062 C 95.878906 395.417969 95.878906 395.417969 94.144531 395.417969 C 90.652344 394.960938 87.871094 393.800781 84.640625 391.667969 C 83.96875 390.292969 83.296875 388.917969 82.601562 387.5 C 79.78125 382.101562 77.292969 381.421875 73.046875 380 C 73.027344 378.554688 73.003906 377.113281 72.980469 375.625 C 71.898438 369.464844 71.359375 368.773438 68.304688 365.105469 C 65.007812 361.085938 64.675781 360.398438 63.628906 353.542969 C 63.605469 351.824219 63.582031 350.105469 63.558594 348.332031 C 62.867188 348.332031 62.167969 348.332031 61.453125 348.332031 C 61.425781 347.328125 61.398438 346.324219 61.371094 345.285156 C 61.308594 343.953125 61.25 342.621094 61.1875 341.25 C 61.140625 339.933594 61.089844 338.621094 61.039062 337.265625 C 60.601562 333.0625 60.601562 333.0625 58.285156 330.382812 C 55.558594 325.566406 55.652344 323.019531 55.640625 316.628906 C 55.621094 313.59375 55.621094 313.59375 55.597656 310.496094 C 55.601562 308.316406 55.609375 306.136719 55.613281 303.894531 C 55.601562 301.632812 55.589844 299.371094 55.574219 297.109375 C 55.542969 291.164062 55.53125 285.21875 55.527344 279.273438 C 55.519531 269.746094 55.480469 260.222656 55.429688 250.695312 C 55.417969 247.367188 55.417969 244.035156 55.417969 240.707031 C 55.414062 238.695312 55.40625 236.679688 55.398438 234.605469 C 55.394531 232.828125 55.394531 231.046875 55.390625 229.214844 C 55.394531 224.71875 55.394531 224.71875 53.019531 221.667969 C 52.867188 220.015625 52.714844 218.367188 52.558594 216.667969 C 52.363281 215.015625 52.167969 213.367188 51.96875 211.667969 C 50.921875 210.566406 49.878906 209.464844 48.804688 208.332031 C 48.421875 204.515625 48.421875 204.515625 48.445312 199.691406 C 48.445312 197.890625 48.445312 196.089844 48.445312 194.234375 C 48.460938 192.28125 48.476562 190.332031 48.496094 188.320312 C 48.5 186.328125 48.503906 184.335938 48.507812 182.28125 C 48.527344 175.894531 48.566406 169.511719 48.605469 163.125 C 48.621094 158.804688 48.636719 154.484375 48.648438 150.164062 C 48.683594 139.550781 48.738281 128.941406 48.804688 118.332031 C 50.195312 117.234375 51.585938 116.132812 53.019531 115 C 52.886719 113.855469 52.75 112.714844 52.613281 111.535156 C 53.238281 104.039062 56.1875 100.507812 59.542969 95.417969 C 60.457031 93.945312 60.457031 93.945312 61.386719 92.441406 C 64.875 87.019531 67.03125 84.390625 71.992188 83.332031 C 72.6875 81.683594 73.382812 80.035156 74.101562 78.332031 C 79.679688 75.914062 85.554688 76.433594 91.300781 76.457031 Z M 446.710938 152.070312 C 437.773438 168.671875 437.421875 187.808594 437.402344 208.671875 C 437.394531 210.953125 437.386719 213.234375 437.378906 215.515625 C 437.367188 220.277344 437.363281 225.039062 437.363281 229.800781 C 437.367188 235.84375 437.335938 241.886719 437.300781 247.925781 C 437.277344 252.632812 437.273438 257.339844 437.273438 262.050781 C 437.269531 265.339844 437.246094 268.628906 437.222656 271.921875 C 437.285156 291.277344 439.136719 309.300781 447.996094 323.542969 C 456.921875 335.121094 466.535156 337.960938 477.8125 336.667969 C 486.320312 334.300781 494.390625 328.734375 499.761719 317.722656 C 505.351562 303.632812 506.585938 291.769531 506.476562 275.421875 C 506.472656 273.738281 506.46875 272.054688 506.46875 270.316406 C 506.457031 264.96875 506.429688 259.621094 506.402344 254.269531 C 506.390625 250.628906 506.382812 246.988281 506.375 243.351562 C 506.351562 234.453125 506.308594 225.5625 506.269531 216.667969 C 495.488281 216.667969 484.703125 216.667969 473.59375 216.667969 C 473.59375 224.367188 473.59375 232.066406 473.59375 240 C 474.636719 240.550781 475.679688 241.101562 476.753906 241.667969 C 476.847656 249.0625 476.902344 256.457031 476.953125 263.855469 C 476.980469 265.957031 477.003906 268.0625 477.03125 270.230469 C 477.046875 272.246094 477.054688 274.257812 477.066406 276.335938 C 477.082031 278.195312 477.097656 280.054688 477.113281 281.96875 C 476.753906 286.667969 476.753906 286.667969 475.296875 289.839844 C 473.59375 291.667969 473.59375 291.667969 471.351562 291.25 C 469.378906 290 469.378906 290 468.324219 288.332031 C 468.21875 285.179688 468.1875 282.023438 468.1875 278.863281 C 468.183594 276.839844 468.179688 274.816406 468.175781 272.730469 C 468.179688 270.503906 468.179688 268.273438 468.183594 266.046875 C 468.183594 263.777344 468.183594 261.511719 468.179688 259.242188 C 468.175781 254.480469 468.179688 249.714844 468.183594 244.953125 C 468.191406 238.84375 468.1875 232.730469 468.183594 226.621094 C 468.175781 221.933594 468.179688 217.246094 468.183594 212.554688 C 468.183594 210.304688 468.183594 208.050781 468.179688 205.796875 C 468.175781 202.648438 468.183594 199.5 468.1875 196.351562 C 468.1875 194.558594 468.1875 192.765625 468.191406 190.914062 C 468.324219 186.667969 468.324219 186.667969 469.378906 183.332031 C 471.878906 183.019531 471.878906 183.019531 474.648438 183.332031 C 476.753906 188.332031 476.753906 188.332031 477.8125 201.667969 C 487.203125 201.667969 496.59375 201.667969 506.269531 201.667969 C 506.269531 182.152344 505.773438 164.464844 496.785156 150 C 481.75 134.851562 460.566406 131.160156 446.710938 152.070312 Z M 624.324219 153.332031 C 618.382812 165.441406 616.628906 176.953125 616.707031 192.03125 C 616.707031 193.542969 616.707031 195.058594 616.707031 196.617188 C 616.707031 201.59375 616.726562 206.570312 616.742188 211.550781 C 616.746094 215.011719 616.75 218.472656 616.75 221.933594 C 616.757812 231.023438 616.777344 240.113281 616.800781 249.207031 C 616.824219 258.488281 616.835938 267.773438 616.84375 277.058594 C 616.867188 295.261719 616.902344 313.464844 616.949219 331.667969 C 626.339844 331.667969 635.730469 331.667969 645.40625 331.667969 C 645.753906 320.667969 646.101562 309.667969 646.460938 298.332031 C 649.242188 298.332031 652.027344 298.332031 654.894531 298.332031 C 655.242188 309.332031 655.589844 320.332031 655.949219 331.667969 C 665.6875 331.667969 675.425781 331.667969 685.460938 331.667969 C 685.417969 312.207031 685.359375 292.75 685.269531 273.292969 C 685.226562 264.253906 685.191406 255.21875 685.175781 246.183594 C 685.160156 237.449219 685.121094 228.71875 685.074219 219.988281 C 685.058594 216.667969 685.050781 213.347656 685.050781 210.027344 C 685.128906 185.105469 685.128906 185.105469 680.191406 161.667969 C 679.625 159.84375 679.0625 158.023438 678.476562 156.144531 C 672.378906 145.230469 663.832031 139.054688 654.730469 137.917969 C 643.636719 137.304688 632.511719 140.527344 624.324219 153.332031 Z M 87.804688 141.667969 C 87.804688 155.964844 87.804688 170.265625 87.804688 185 C 92.324219 185.550781 96.847656 186.101562 101.507812 186.667969 C 101.855469 234.515625 102.203125 282.367188 102.5625 331.667969 C 111.953125 331.667969 121.34375 331.667969 131.019531 331.667969 C 131.371094 283.816406 131.714844 235.964844 132.078125 186.667969 C 138.859375 185.839844 138.859375 185.839844 145.777344 185 C 145.777344 170.699219 145.777344 156.398438 145.777344 141.667969 C 126.648438 141.667969 107.515625 141.667969 87.804688 141.667969 Z M 154.210938 141.667969 C 154.210938 204.367188 154.210938 267.066406 154.210938 331.667969 C 163.601562 331.667969 172.992188 331.667969 182.671875 331.667969 C 182.671875 305.816406 182.671875 279.964844 182.671875 253.332031 C 185.800781 253.332031 188.933594 253.332031 192.15625 253.332031 C 192.503906 279.183594 192.851562 305.035156 193.210938 331.667969 C 202.605469 331.667969 211.996094 331.667969 221.671875 331.667969 C 221.671875 268.964844 221.671875 206.265625 221.671875 141.667969 C 212.28125 141.667969 202.886719 141.667969 193.210938 141.667969 C 193.117188 149.1875 193.117188 149.1875 193.015625 156.863281 C 192.953125 161.703125 192.886719 166.546875 192.820312 171.390625 C 192.773438 174.761719 192.726562 178.136719 192.6875 181.507812 C 192.625 186.347656 192.558594 191.1875 192.492188 196.027344 C 192.464844 198.300781 192.464844 198.300781 192.4375 200.617188 C 192.417969 202.019531 192.394531 203.417969 192.375 204.863281 C 192.355469 206.097656 192.339844 207.335938 192.324219 208.609375 C 192.15625 211.667969 192.15625 211.667969 191.105469 215 C 188.667969 215 186.234375 215 183.722656 215 C 183.375 190.800781 183.03125 166.601562 182.671875 141.667969 C 173.277344 141.667969 163.886719 141.667969 154.210938 141.667969 Z M 231.160156 141.667969 C 231.160156 204.367188 231.160156 267.066406 231.160156 331.667969 C 249.59375 331.667969 268.027344 331.667969 287.023438 331.667969 C 287.023438 317.367188 287.023438 303.066406 287.023438 288.332031 C 278.328125 288.332031 269.632812 288.332031 260.671875 288.332031 C 260.671875 278.433594 260.671875 268.535156 260.671875 258.332031 C 268.671875 258.332031 276.671875 258.332031 284.914062 258.332031 C 284.914062 244.035156 284.914062 229.734375 284.914062 215 C 276.914062 215 268.914062 215 260.671875 215 C 260.671875 205.101562 260.671875 195.199219 260.671875 185 C 269.367188 185 278.0625 185 287.023438 185 C 287.023438 170.699219 287.023438 156.398438 287.023438 141.667969 C 268.589844 141.667969 250.152344 141.667969 231.160156 141.667969 Z M 321.808594 141.667969 C 321.808594 204.367188 321.808594 267.066406 321.808594 331.667969 C 354.011719 336.523438 354.011719 336.523438 382.484375 318.332031 C 389.992188 303.246094 389.75 283.847656 389.722656 265.476562 C 389.730469 263.164062 389.738281 260.851562 389.742188 258.542969 C 389.75 253.730469 389.75 248.917969 389.738281 244.109375 C 389.726562 238.003906 389.746094 231.902344 389.777344 225.800781 C 389.796875 221.035156 389.796875 216.273438 389.789062 211.507812 C 389.789062 208.1875 389.808594 204.863281 389.828125 201.539062 C 389.746094 184.785156 388.683594 167.078125 381.363281 154.0625 C 363.914062 132.988281 343.132812 141.667969 321.808594 141.667969 Z M 399.808594 141.667969 C 399.808594 204.367188 399.808594 267.066406 399.808594 331.667969 C 409.203125 331.667969 418.59375 331.667969 428.269531 331.667969 C 428.269531 268.964844 428.269531 206.265625 428.269531 141.667969 C 418.878906 141.667969 409.484375 141.667969 399.808594 141.667969 Z M 515.757812 141.667969 C 515.757812 204.367188 515.757812 267.066406 515.757812 331.667969 C 525.496094 331.667969 535.234375 331.667969 545.273438 331.667969 C 545.273438 268.964844 545.273438 206.265625 545.273438 141.667969 C 535.53125 141.667969 525.792969 141.667969 515.757812 141.667969 Z M 552.648438 141.667969 C 552.648438 155.417969 552.648438 169.167969 552.648438 183.332031 C 552.996094 183.882812 553.34375 184.433594 553.703125 185 C 557.875 185 562.050781 185 566.351562 185 C 566.699219 233.398438 567.046875 281.800781 567.40625 331.667969 C 576.796875 331.667969 586.1875 331.667969 595.867188 331.667969 C 596.214844 283.265625 596.5625 234.867188 596.917969 185 C 601.441406 185 605.960938 185 610.625 185 C 610.625 170.699219 610.625 156.398438 610.625 141.667969 C 591.492188 141.667969 572.359375 141.667969 552.648438 141.667969 Z M 693.894531 141.667969 C 693.894531 204.367188 693.894531 267.066406 693.894531 331.667969 C 709.546875 331.667969 725.199219 331.667969 741.328125 331.667969 C 741.328125 317.367188 741.328125 303.066406 741.328125 288.332031 C 735.414062 288.332031 729.5 288.332031 723.40625 288.332031 C 723.40625 239.933594 723.40625 191.535156 723.40625 141.667969 C 713.667969 141.667969 703.929688 141.667969 693.894531 141.667969 Z M 776.113281 141.667969 C 776.113281 204.367188 776.113281 267.066406 776.113281 331.667969 C 814.71875 335.269531 814.71875 335.269531 831.980469 325 C 831.980469 323.898438 831.980469 322.800781 831.980469 321.667969 C 832.890625 321.152344 832.890625 321.152344 833.820312 320.625 C 839.710938 314.933594 841.25 305.351562 842.910156 295.351562 C 844.113281 285.632812 844.042969 275.9375 844.027344 266.0625 C 844.035156 263.789062 844.039062 261.515625 844.046875 259.246094 C 844.054688 254.507812 844.054688 249.773438 844.042969 245.039062 C 844.027344 239.035156 844.050781 233.039062 844.082031 227.039062 C 844.101562 222.351562 844.101562 217.664062 844.097656 212.980469 C 844.097656 209.714844 844.113281 206.449219 844.128906 203.183594 C 844.050781 186.246094 843.09375 167.136719 835.664062 153.957031 C 818.070312 133.089844 797.636719 141.667969 776.113281 141.667969 Z M 854.113281 141.667969 C 854.113281 204.367188 854.113281 267.066406 854.113281 331.667969 C 872.203125 331.667969 890.289062 331.667969 908.925781 331.667969 C 908.925781 317.367188 908.925781 303.066406 908.925781 288.332031 C 900.226562 288.332031 891.53125 288.332031 882.574219 288.332031 C 882.917969 278.984375 883.269531 269.632812 883.625 260 C 891.625 259.449219 899.625 258.898438 907.871094 258.332031 C 907.871094 244.035156 907.871094 229.734375 907.871094 215 C 899.867188 214.449219 891.867188 213.898438 883.625 213.332031 C 883.625 204.535156 883.625 195.734375 883.625 186.667969 C 891.976562 186.117188 900.324219 185.566406 908.925781 185 C 908.925781 170.699219 908.925781 156.398438 908.925781 141.667969 C 890.835938 141.667969 872.75 141.667969 854.113281 141.667969 Z M 917.355469 141.667969 C 917.195312 166.195312 917.039062 190.71875 916.890625 215.246094 C 916.820312 226.632812 916.75 238.023438 916.675781 249.410156 C 916.601562 260.390625 916.535156 271.367188 916.46875 282.347656 C 916.441406 286.546875 916.414062 290.746094 916.386719 294.945312 C 916.347656 300.804688 916.3125 306.664062 916.28125 312.523438 C 916.265625 314.277344 916.253906 316.03125 916.238281 317.839844 C 916.230469 319.425781 916.222656 321.015625 916.214844 322.648438 C 916.207031 324.035156 916.199219 325.425781 916.191406 326.855469 C 916.082031 330.019531 916.082031 330.019531 917.355469 331.667969 C 919.464844 331.8125 921.574219 331.84375 923.6875 331.828125 C 924.839844 331.824219 925.992188 331.820312 927.179688 331.816406 C 928.65625 331.800781 930.132812 331.785156 931.652344 331.769531 C 936.328125 331.738281 941 331.703125 945.816406 331.667969 C 945.816406 306.367188 945.816406 281.066406 945.816406 255 C 947.554688 255 949.296875 255 951.085938 255 C 951.132812 256.890625 951.171875 258.78125 951.21875 260.730469 C 951.953125 271.421875 954.496094 281.128906 956.824219 291.160156 C 959.90625 304.453125 962.332031 318.058594 964.792969 331.667969 C 973.136719 331.667969 981.484375 331.667969 990.089844 331.667969 C 990.089844 268.964844 990.089844 206.265625 990.089844 141.667969 C 980.695312 141.667969 971.304688 141.667969 961.628906 141.667969 C 961.28125 168.066406 960.933594 194.464844 960.574219 221.667969 C 959.53125 222.492188 959.53125 222.492188 958.46875 223.332031 C 956.804688 214.640625 955.171875 205.9375 953.570312 197.214844 C 950.144531 178.589844 946.402344 160.136719 942.65625 141.667969 C 934.304688 141.667969 925.957031 141.667969 917.355469 141.667969 Z M 917.355469 141.667969 "/>
<path style=" stroke:none;fill-rule:nonzero;fill:rgb(0%,0%,0%);fill-opacity:1;" d="M 351.320312 185 C 357.648438 185 357.648438 185 359.753906 186.667969 C 360.886719 191.734375 360.945312 196.574219 360.960938 201.914062 C 360.972656 204.476562 360.972656 204.476562 360.980469 207.089844 C 360.984375 208.921875 360.984375 210.757812 360.984375 212.648438 C 360.988281 214.542969 360.992188 216.4375 360.996094 218.390625 C 361 222.394531 361.003906 226.402344 361.003906 230.40625 C 361.007812 236.53125 361.027344 242.660156 361.046875 248.785156 C 361.046875 252.679688 361.050781 256.570312 361.050781 260.460938 C 361.058594 262.292969 361.066406 264.125 361.074219 266.011719 C 361.070312 267.726562 361.066406 269.4375 361.066406 271.203125 C 361.066406 272.703125 361.066406 274.207031 361.066406 275.753906 C 360.78125 280.453125 359.929688 284.050781 358.699219 288.332031 C 356.265625 288.332031 353.832031 288.332031 351.320312 288.332031 C 351.320312 254.234375 351.320312 220.132812 351.320312 185 Z M 351.320312 185 "/>
<path style=" stroke:none;fill-rule:nonzero;fill:rgb(0%,0%,0%);fill-opacity:1;" d="M 805.625 185 C 807.710938 185 809.800781 185 811.949219 185 C 814.058594 188.332031 814.058594 188.332031 814.316406 192.457031 C 814.316406 195.058594 814.316406 195.058594 814.316406 197.710938 C 814.316406 199.675781 814.320312 201.636719 814.324219 203.660156 C 814.316406 205.789062 814.308594 207.917969 814.300781 210.109375 C 814.300781 213.371094 814.300781 213.371094 814.300781 216.699219 C 814.296875 221.300781 814.289062 225.902344 814.277344 230.503906 C 814.257812 236.417969 814.253906 242.328125 814.253906 248.238281 C 814.253906 253.863281 814.242188 259.488281 814.234375 265.109375 C 814.234375 267.242188 814.234375 269.375 814.230469 271.570312 C 814.222656 273.527344 814.21875 275.488281 814.210938 277.503906 C 814.207031 279.238281 814.203125 280.96875 814.199219 282.753906 C 814.058594 286.667969 814.058594 286.667969 813.003906 288.332031 C 810.570312 288.332031 808.132812 288.332031 805.625 288.332031 C 805.625 254.234375 805.625 220.132812 805.625 185 Z M 805.625 185 "/>
<path style=" stroke:none;fill-rule:nonzero;fill:rgb(0%,0%,0%);fill-opacity:1;" d="M 647.515625 181.667969 C 652.277344 181.054688 652.277344 181.054688 654.519531 183.75 C 656.277344 187.34375 656.339844 189.128906 656.324219 193.632812 C 656.324219 195.03125 656.332031 196.425781 656.332031 197.863281 C 656.320312 199.363281 656.304688 200.863281 656.292969 202.410156 C 656.292969 204.722656 656.292969 204.722656 656.289062 207.082031 C 656.28125 210.34375 656.265625 213.601562 656.246094 216.859375 C 656.210938 221.867188 656.199219 226.875 656.195312 231.882812 C 656.183594 235.042969 656.175781 238.207031 656.164062 241.367188 C 656.15625 243.628906 656.15625 243.628906 656.148438 245.933594 C 656.070312 256.472656 656.070312 256.472656 654.890625 258.332031 C 652.980469 258.554688 652.980469 258.554688 650.675781 258.542969 C 649.917969 258.546875 649.15625 258.550781 648.371094 258.554688 C 646.460938 258.332031 646.460938 258.332031 645.40625 256.667969 C 645.289062 251.695312 645.234375 246.761719 645.230469 241.789062 C 645.226562 240.292969 645.222656 238.792969 645.21875 237.25 C 645.214844 234.070312 645.210938 230.890625 645.210938 227.710938 C 645.210938 222.851562 645.191406 217.988281 645.167969 213.128906 C 645.167969 210.042969 645.164062 206.957031 645.164062 203.875 C 645.152344 201.691406 645.152344 201.691406 645.140625 199.464844 C 645.144531 198.101562 645.148438 196.738281 645.148438 195.335938 C 645.148438 193.546875 645.148438 193.546875 645.148438 191.71875 C 645.449219 187.796875 646.292969 185.082031 647.515625 181.667969 Z M 647.515625 181.667969 "/>
</g>
</svg>
